<mxfile host="app.diagrams.net" modified="2024-06-03T05:39:48.904Z" agent="Mozilla/5.0 (Windows NT 10.0; Win64; x64) AppleWebKit/537.36 (KHTML, like Gecko) Chrome/122.0.0.0 Safari/537.36 Edg/122.0.0.0" etag="RJJfwNv7MjACMiyMsomu" version="24.0.6" type="github">
  <diagram id="prtHgNgQTEPvFCAcTncT" name="Page-1">
    <mxGraphModel dx="946" dy="571" grid="1" gridSize="10" guides="1" tooltips="1" connect="1" arrows="1" fold="1" page="1" pageScale="1" pageWidth="827" pageHeight="1169" math="0" shadow="0">
      <root>
        <mxCell id="0" />
        <mxCell id="1" parent="0" />
        <mxCell id="N84NXk9DzcGIlHisHfHo-11" value="" style="rounded=1;whiteSpace=wrap;html=1;fontSize=17;" vertex="1" parent="1">
          <mxGeometry x="315" y="670" width="130" height="180" as="geometry" />
        </mxCell>
        <mxCell id="N84NXk9DzcGIlHisHfHo-15" value="" style="rounded=1;whiteSpace=wrap;html=1;fontSize=17;" vertex="1" parent="1">
          <mxGeometry x="138" y="669" width="130" height="181" as="geometry" />
        </mxCell>
        <mxCell id="N84NXk9DzcGIlHisHfHo-9" value="" style="rounded=1;whiteSpace=wrap;html=1;fontSize=17;" vertex="1" parent="1">
          <mxGeometry x="150" y="380" width="470" height="200" as="geometry" />
        </mxCell>
        <mxCell id="N84NXk9DzcGIlHisHfHo-10" value="control plane" style="text;html=1;align=center;verticalAlign=middle;whiteSpace=wrap;rounded=0;fontSize=19;" vertex="1" parent="1">
          <mxGeometry x="163" y="390" width="130" height="30" as="geometry" />
        </mxCell>
        <mxCell id="N84NXk9DzcGIlHisHfHo-13" value="API Server" style="rounded=1;whiteSpace=wrap;html=1;fontSize=17;" vertex="1" parent="1">
          <mxGeometry x="340" y="700" width="80" height="50" as="geometry" />
        </mxCell>
        <mxCell id="N84NXk9DzcGIlHisHfHo-16" value="API Server" style="rounded=1;whiteSpace=wrap;html=1;fontSize=17;" vertex="1" parent="1">
          <mxGeometry x="163" y="700" width="80" height="50" as="geometry" />
        </mxCell>
        <mxCell id="N84NXk9DzcGIlHisHfHo-17" value="cluster member1&lt;div&gt;&lt;br&gt;&lt;/div&gt;&lt;div&gt;火山引擎&lt;/div&gt;" style="text;html=1;align=center;verticalAlign=middle;whiteSpace=wrap;rounded=0;fontSize=17;" vertex="1" parent="1">
          <mxGeometry x="163" y="780" width="80" height="30" as="geometry" />
        </mxCell>
        <mxCell id="N84NXk9DzcGIlHisHfHo-18" value="" style="rounded=1;whiteSpace=wrap;html=1;fontSize=17;" vertex="1" parent="1">
          <mxGeometry x="486" y="670" width="130" height="180" as="geometry" />
        </mxCell>
        <mxCell id="N84NXk9DzcGIlHisHfHo-19" value="API Server" style="rounded=1;whiteSpace=wrap;html=1;fontSize=17;" vertex="1" parent="1">
          <mxGeometry x="511" y="690" width="80" height="30" as="geometry" />
        </mxCell>
        <mxCell id="N84NXk9DzcGIlHisHfHo-20" value="cluster" style="text;html=1;align=center;verticalAlign=middle;whiteSpace=wrap;rounded=0;fontSize=17;" vertex="1" parent="1">
          <mxGeometry x="521" y="760" width="60" height="30" as="geometry" />
        </mxCell>
        <mxCell id="N84NXk9DzcGIlHisHfHo-23" value="" style="rounded=1;whiteSpace=wrap;html=1;fontSize=17;" vertex="1" parent="1">
          <mxGeometry x="500" y="680" width="130" height="180" as="geometry" />
        </mxCell>
        <mxCell id="N84NXk9DzcGIlHisHfHo-24" value="API Server" style="rounded=1;whiteSpace=wrap;html=1;fontSize=17;" vertex="1" parent="1">
          <mxGeometry x="525" y="710" width="80" height="50" as="geometry" />
        </mxCell>
        <mxCell id="N84NXk9DzcGIlHisHfHo-22" style="edgeStyle=orthogonalEdgeStyle;rounded=0;orthogonalLoop=1;jettySize=auto;html=1;entryX=0.5;entryY=0;entryDx=0;entryDy=0;fontSize=17;" edge="1" parent="1" target="N84NXk9DzcGIlHisHfHo-24">
          <mxGeometry relative="1" as="geometry">
            <mxPoint x="520" y="670" as="targetPoint" />
            <mxPoint x="380" y="640" as="sourcePoint" />
          </mxGeometry>
        </mxCell>
        <mxCell id="N84NXk9DzcGIlHisHfHo-25" value="other clusters&lt;div&gt;其他公有云、私有云&lt;/div&gt;" style="text;html=1;align=center;verticalAlign=middle;whiteSpace=wrap;rounded=0;fontSize=17;" vertex="1" parent="1">
          <mxGeometry x="521" y="790" width="89" height="30" as="geometry" />
        </mxCell>
        <mxCell id="N84NXk9DzcGIlHisHfHo-29" style="edgeStyle=orthogonalEdgeStyle;rounded=0;orthogonalLoop=1;jettySize=auto;html=1;" edge="1" parent="1" source="N84NXk9DzcGIlHisHfHo-26" target="N84NXk9DzcGIlHisHfHo-13">
          <mxGeometry relative="1" as="geometry">
            <Array as="points">
              <mxPoint x="380" y="590" />
              <mxPoint x="380" y="590" />
            </Array>
          </mxGeometry>
        </mxCell>
        <mxCell id="N84NXk9DzcGIlHisHfHo-26" value="" style="rounded=1;whiteSpace=wrap;html=1;" vertex="1" parent="1">
          <mxGeometry x="180" y="480" width="430" height="80" as="geometry" />
        </mxCell>
        <mxCell id="N84NXk9DzcGIlHisHfHo-21" style="edgeStyle=orthogonalEdgeStyle;rounded=0;orthogonalLoop=1;jettySize=auto;html=1;entryX=0.5;entryY=0;entryDx=0;entryDy=0;fontSize=17;exitX=0.5;exitY=1;exitDx=0;exitDy=0;" edge="1" parent="1" source="N84NXk9DzcGIlHisHfHo-26" target="N84NXk9DzcGIlHisHfHo-16">
          <mxGeometry relative="1" as="geometry">
            <Array as="points">
              <mxPoint x="380" y="560" />
              <mxPoint x="380" y="640" />
              <mxPoint x="203" y="640" />
            </Array>
          </mxGeometry>
        </mxCell>
        <mxCell id="N84NXk9DzcGIlHisHfHo-27" value="Sync Controller" style="rounded=1;whiteSpace=wrap;html=1;fontSize=17;" vertex="1" parent="1">
          <mxGeometry x="413.5" y="495" width="80" height="50" as="geometry" />
        </mxCell>
        <mxCell id="N84NXk9DzcGIlHisHfHo-28" value="Global Scheduler" style="rounded=1;whiteSpace=wrap;html=1;fontSize=17;" vertex="1" parent="1">
          <mxGeometry x="200" y="495" width="80" height="50" as="geometry" />
        </mxCell>
        <mxCell id="N84NXk9DzcGIlHisHfHo-30" value="Federated Controller" style="rounded=1;whiteSpace=wrap;html=1;fontSize=17;" vertex="1" parent="1">
          <mxGeometry x="300" y="495" width="95" height="50" as="geometry" />
        </mxCell>
        <mxCell id="N84NXk9DzcGIlHisHfHo-31" value="Other Controllers" style="rounded=1;whiteSpace=wrap;html=1;fontSize=17;" vertex="1" parent="1">
          <mxGeometry x="506.5" y="495" width="89" height="50" as="geometry" />
        </mxCell>
        <mxCell id="N84NXk9DzcGIlHisHfHo-32" value="Kubernetes&amp;nbsp;&lt;div&gt;API Server&lt;/div&gt;" style="rounded=1;whiteSpace=wrap;html=1;fontSize=17;" vertex="1" parent="1">
          <mxGeometry x="310" y="410" width="160" height="50" as="geometry" />
        </mxCell>
        <mxCell id="N84NXk9DzcGIlHisHfHo-33" value="cluster member2&lt;div&gt;&lt;br&gt;&lt;/div&gt;&lt;div&gt;AWS&lt;/div&gt;" style="text;html=1;align=center;verticalAlign=middle;whiteSpace=wrap;rounded=0;fontSize=17;" vertex="1" parent="1">
          <mxGeometry x="340" y="780" width="80" height="30" as="geometry" />
        </mxCell>
      </root>
    </mxGraphModel>
  </diagram>
</mxfile>
